<svg xmlns="http://www.w3.org/2000/svg" width="1280" height="720" viewBox="0 0 1280 720">
  <rect width="1280" height="720" fill="#0e0f0e"/><rect width="220" height="720" fill="#171716"/><rect x="220" width="790" height="720" fill="#121513"/><rect x="1010" width="270" height="720" fill="#1d1d1b"/>
  <rect x="18" y="34" width="8" height="36" rx="4" fill="#f2a65a"/><text x="38" y="54" fill="#e8e4dc" font-family="Yu Gothic UI,sans-serif" font-size="14" font-weight="700">LOCAL / ROOM</text><text x="244" y="48" fill="#f2a65a" font-family="Yu Gothic UI,sans-serif" font-size="11" font-weight="700">C / BOTTOM RUN BAR</text><text x="244" y="80" fill="#e8e4dc" font-family="Yu Gothic UI,sans-serif" font-size="23" font-weight="700">メモ帳で安全確認</text>
  <rect x="472" y="132" width="506" height="82" rx="18" fill="#2a2521"/><text x="492" y="158" fill="#f2a65a" font-family="Yu Gothic UI,sans-serif" font-size="10">あなた</text><text x="492" y="190" fill="#e8e4dc" font-family="Yu Gothic UI,sans-serif" font-size="14">メモ帳に試験文を入力して。保存はしないで。</text>
  <rect x="244" y="248" width="570" height="122" rx="18" fill="#182723"/><text x="264" y="276" fill="#55c2a3" font-family="Yu Gothic UI,sans-serif" font-size="10">AI</text><text x="264" y="312" fill="#e8e4dc" font-family="Yu Gothic UI,sans-serif" font-size="14">固定計画を用意しました。</text><text x="264" y="340" fill="#969188" font-family="Yu Gothic UI,sans-serif" font-size="11">画面下の実行バーで詳細を確認してください。</text>
  <text x="1030" y="42" fill="#716d65" font-family="Yu Gothic UI,sans-serif" font-size="10">CONTROL DESK</text><rect x="1030" y="60" width="230" height="64" rx="12" fill="#242421"/><text x="1044" y="86" fill="#55c2a3" font-family="Yu Gothic UI,sans-serif" font-size="11">● 保護中</text><text x="1044" y="108" fill="#969188" font-family="Yu Gothic UI,sans-serif" font-size="9">Computer Useは承認待ち</text>
  <rect x="220" y="500" width="1060" height="220" fill="#22231f" stroke="#4b4942"/><rect x="244" y="518" width="1012" height="42" rx="12" fill="#18231f"/><text x="262" y="544" fill="#55c2a3" font-family="Yu Gothic UI,sans-serif" font-size="11">✓ 標準権限　✓ 同一セッション　✓ ネットワークなし　✓ 保存なし</text><text x="1168" y="544" fill="#f2a65a" font-family="Yu Gothic UI,sans-serif" font-size="10">残り24秒</text>
  <text x="244" y="590" fill="#e8e4dc" font-family="Yu Gothic UI,sans-serif" font-size="14" font-weight="700">隔離Windows VM / メモ帳　·　3操作　·　最大60秒</text><text x="244" y="620" fill="#969188" font-family="Yu Gothic UI,sans-serif" font-size="11">入力全文: 安全確認 2026-07-18　　禁止: Host / 管理者 / UAC / 保存 / 削除</text><text x="244" y="648" fill="#f2a65a" font-family="Yu Gothic UI,sans-serif" font-size="10">詳細を表示 ▲　計画変更で承認失効</text>
  <rect x="820" y="660" width="132" height="42" rx="12" fill="#34332f"/><text x="862" y="686" fill="#e8e4dc" font-family="Yu Gothic UI,sans-serif" font-size="12">やめる</text><rect x="966" y="660" width="174" height="42" rx="12" fill="#f2a65a"/><text x="986" y="686" fill="#17120d" font-family="Yu Gothic UI,sans-serif" font-size="12" font-weight="700">2秒長押しで実行</text><rect x="1150" y="660" width="106" height="42" rx="12" fill="#7d2525"/><text x="1172" y="686" fill="#fff" font-family="Yu Gothic UI,sans-serif" font-size="12" font-weight="700">停止 F12</text>
</svg>
