<svg xmlns="http://www.w3.org/2000/svg" width="1280" height="720" viewBox="0 0 1280 720">
  <rect width="1280" height="720" fill="#0e0f0e"/><rect width="220" height="720" fill="#171716"/><rect x="220" width="790" height="720" fill="#121513"/><rect x="1010" width="270" height="720" fill="#1d1d1b"/>
  <rect x="18" y="34" width="8" height="36" rx="4" fill="#f2a65a"/><text x="38" y="54" fill="#e8e4dc" font-family="Yu Gothic UI,sans-serif" font-size="14" font-weight="700">LOCAL / ROOM</text>
  <rect x="18" y="100" width="184" height="34" rx="17" fill="#f2a65a"/><text x="70" y="122" fill="#17120d" font-family="Yu Gothic UI,sans-serif" font-size="13" font-weight="700">＋ 新しい会話</text>
  <text x="244" y="48" fill="#f2a65a" font-family="Yu Gothic UI,sans-serif" font-size="11" font-weight="700">A / RIGHT SAFETY GATE</text><text x="244" y="80" fill="#e8e4dc" font-family="Yu Gothic UI,sans-serif" font-size="23" font-weight="700">メモ帳で安全確認</text>
  <rect x="472" y="132" width="506" height="82" rx="18" fill="#2a2521"/><text x="492" y="158" fill="#f2a65a" font-family="Yu Gothic UI,sans-serif" font-size="10" font-weight="700">あなた</text><text x="492" y="190" fill="#e8e4dc" font-family="Yu Gothic UI,sans-serif" font-size="14">メモ帳に試験文を入力して。保存はしないで。</text>
  <rect x="244" y="248" width="570" height="122" rx="18" fill="#182723"/><text x="264" y="276" fill="#55c2a3" font-family="Yu Gothic UI,sans-serif" font-size="10" font-weight="700">AI</text><text x="264" y="312" fill="#e8e4dc" font-family="Yu Gothic UI,sans-serif" font-size="14">安全検査済みの固定計画を作りました。</text><text x="264" y="340" fill="#969188" font-family="Yu Gothic UI,sans-serif" font-size="11">右側の内容を確認するまでOS入力は送りません。</text>
  <rect x="244" y="650" width="734" height="48" rx="8" fill="#24231f"/><text x="262" y="680" fill="#77736b" font-family="Yu Gothic UI,sans-serif" font-size="13">メッセージを入力</text>
  <text x="1030" y="38" fill="#716d65" font-family="Yu Gothic UI,sans-serif" font-size="10">CONTROL DESK / SAFETY GATE</text>
  <rect x="1030" y="54" width="230" height="44" rx="12" fill="#3a2d18"/><text x="1044" y="81" fill="#f2a65a" font-family="Yu Gothic UI,sans-serif" font-size="12" font-weight="700">承認待ち · 残り 24秒</text>
  <text x="1030" y="126" fill="#716d65" font-family="Yu Gothic UI,sans-serif" font-size="9">実行先</text><text x="1030" y="148" fill="#e8e4dc" font-family="Yu Gothic UI,sans-serif" font-size="12" font-weight="700">隔離Windows VM / メモ帳</text>
  <rect x="1030" y="166" width="230" height="116" rx="14" fill="#242421"/><text x="1044" y="190" fill="#55c2a3" font-family="Yu Gothic UI,sans-serif" font-size="10">✓ 標準権限・同一セッション</text><text x="1044" y="214" fill="#55c2a3" font-family="Yu Gothic UI,sans-serif" font-size="10">✓ ネットワーク / 共有なし</text><text x="1044" y="238" fill="#55c2a3" font-family="Yu Gothic UI,sans-serif" font-size="10">✓ 保存・削除・設定変更なし</text><text x="1044" y="262" fill="#55c2a3" font-family="Yu Gothic UI,sans-serif" font-size="10">✓ 3操作 / 最大60秒</text>
  <text x="1030" y="314" fill="#716d65" font-family="Yu Gothic UI,sans-serif" font-size="9">入力全文</text><rect x="1030" y="326" width="230" height="58" rx="12" fill="#191a18"/><text x="1044" y="360" fill="#e8e4dc" font-family="Yu Gothic UI,sans-serif" font-size="12">安全確認 2026-07-18</text>
  <rect x="1030" y="408" width="108" height="42" rx="12" fill="#34332f"/><text x="1064" y="434" fill="#e8e4dc" font-family="Yu Gothic UI,sans-serif" font-size="12">やめる</text><rect x="1150" y="408" width="110" height="42" rx="12" fill="#f2a65a"/><text x="1170" y="434" fill="#17120d" font-family="Yu Gothic UI,sans-serif" font-size="12" font-weight="700">計画を承認</text>
  <rect x="1030" y="478" width="230" height="76" rx="14" fill="#3a1717" stroke="#d45d5d"/><text x="1044" y="504" fill="#ff9b9b" font-family="Yu Gothic UI,sans-serif" font-size="11" font-weight="700">停止は常に有効</text><text x="1044" y="530" fill="#e8e4dc" font-family="Yu Gothic UI,sans-serif" font-size="12">Ctrl + Alt + F12</text>
  <text x="1030" y="586" fill="#969188" font-family="Yu Gothic UI,sans-serif" font-size="9">計画が変わると承認は失効します</text>
</svg>
